<svg id="Layer_1" height="512" viewBox="0 0 512 512" width="512" xmlns="http://www.w3.org/2000/svg" data-name="Layer 1"><path d="m131.461 451.821v18.112.107a5.865 5.865 0 0 0 5.7 5.96h237.676a5.865 5.865 0 0 0 5.7-5.96c0-.036 0-.071 0-.107v-18.112z"/><path d="m110.927 291.464a6 6 0 1 1 0 12h-76.247a226.781 226.781 0 0 0 91.136 136.357h260.368a226.783 226.783 0 0 0 91.137-136.357h-328.682a6 6 0 0 1 0-12h331a227.059 227.059 0 0 0 3.1-37.276v-8.618h-453.478v8.618a227.059 227.059 0 0 0 3.1 37.276zm281.167 106.244a226.354 226.354 0 0 0 38.676-52.556 6 6 0 1 1 10.589 5.643 238.229 238.229 0 0 1 -40.724 55.341 6 6 0 1 1 -8.541-8.428z"/><path d="m231.963 84.184c0-9.766-4.124-14.925-7.438-19.07-2.794-3.494-4.811-6.019-4.811-11.577a6 6 0 1 0 -12 0c0 9.765 4.124 14.924 7.437 19.07 2.794 3.494 4.812 6.018 4.812 11.577s-2.019 8.083-4.812 11.577c-3.313 4.145-7.437 9.3-7.437 19.07s4.124 14.922 7.438 19.067c2.793 3.494 4.811 6.018 4.811 11.575s-2.018 8.082-4.811 11.575c-3.314 4.145-7.438 9.305-7.438 19.069a6 6 0 1 0 12 0c0-5.557 2.017-8.082 4.811-11.575 3.314-4.146 7.438-9.305 7.438-19.069s-4.124-14.923-7.439-19.068c-2.793-3.493-4.81-6.017-4.81-11.574s2.017-8.083 4.811-11.577c3.314-4.146 7.438-9.305 7.438-19.07z"/><path d="m365.482 75.531c0-10.341-4.037-15.866-7.28-20.305-2.885-3.949-4.97-6.8-4.97-13.226a6 6 0 0 0 -12 0c0 10.341 4.038 15.866 7.281 20.305 2.884 3.949 4.969 6.8 4.969 13.226s-2.085 9.278-4.969 13.226c-3.243 4.439-7.281 9.964-7.281 20.3s4.038 15.865 7.281 20.3c2.885 3.947 4.969 6.8 4.969 13.223s-2.084 9.276-4.969 13.224c-3.243 4.439-7.281 9.963-7.281 20.3a6 6 0 1 0 12 0c0-6.423 2.085-9.276 4.97-13.224 3.243-4.439 7.28-9.963 7.28-20.3s-4.037-15.864-7.28-20.3c-2.886-3.948-4.97-6.8-4.97-13.224s2.085-9.277 4.97-13.226c3.243-4.43 7.28-9.957 7.28-20.299z"/><path d="m171.329 84.184c0-9.766-4.124-14.925-7.438-19.07-2.793-3.494-4.812-6.019-4.812-11.577a6 6 0 0 0 -12 0c0 9.765 4.124 14.924 7.439 19.07 2.793 3.494 4.811 6.018 4.811 11.577s-2.018 8.083-4.811 11.577c-3.315 4.145-7.439 9.3-7.439 19.07s4.125 14.922 7.439 19.068c2.793 3.493 4.811 6.017 4.811 11.574s-2.018 8.082-4.811 11.575c-3.314 4.145-7.439 9.305-7.439 19.069a6 6 0 1 0 12 0c0-5.557 2.019-8.082 4.812-11.575 3.314-4.146 7.438-9.3 7.438-19.069s-4.125-14.923-7.438-19.068c-2.793-3.493-4.812-6.017-4.812-11.574s2.019-8.083 4.812-11.577c3.314-4.146 7.438-9.305 7.438-19.07z"/><path d="m304.848 75.531c0-10.341-4.037-15.866-7.281-20.305-2.884-3.949-4.969-6.8-4.969-13.226a6 6 0 0 0 -12 0c0 10.341 4.037 15.866 7.28 20.305 2.885 3.949 4.97 6.8 4.97 13.226s-2.085 9.278-4.97 13.226c-3.243 4.439-7.28 9.964-7.28 20.3s4.037 15.865 7.28 20.3c2.886 3.947 4.97 6.8 4.97 13.223s-2.084 9.276-4.97 13.224c-3.243 4.439-7.28 9.963-7.28 20.3a6 6 0 1 0 12 0c0-6.423 2.085-9.276 4.969-13.224 3.244-4.439 7.281-9.963 7.281-20.3s-4.037-15.864-7.281-20.3c-2.885-3.948-4.969-6.8-4.969-13.224s2.085-9.277 4.969-13.226c3.244-4.43 7.281-9.957 7.281-20.299z"/></svg>