<svg height="512pt" viewBox="0 0 512.001 512" width="512pt" xmlns="http://www.w3.org/2000/svg"><path d="m448.097656 86.777344-11.273437 9.941406c37.128906 42.117188 58.289062 95.75 60.03125 151.769531h-23.074219c-2.542969-74.703125-42.859375-139.972656-102.410156-177.285156l11.601562-20.097656c15.746094 9.804687 30.476563 21.492187 43.890625 34.976562l10.65625-10.597656c-48.40625-48.675781-112.871093-75.484375-181.519531-75.484375-34.582031 0-69.367188 6.84375-103.394531 20.335938-60.191407 23.867187-108.402344 72.078124-132.273438 132.273437-13.492187 34.019531-20.332031 68.808594-20.332031 103.390625 0 28.695312 4.714844 56.867188 14.011719 83.738281l14.203125-4.910156c-7.9375-22.941406-12.3125-46.894531-13.058594-71.3125h23.0625c2.542969 74.699219 42.859375 139.972656 102.410156 177.28125l-11.636718 20.15625c-41.933594-25.960937-75.757813-64.777344-95.609376-112.539063l-13.878906 5.765626c19.183594 46.152343 51.238282 85.453124 92.707032 113.65625 42.488281 28.894531 92.210937 44.164062 143.789062 44.164062 45.003906 0 89.273438-11.851562 128.023438-34.273438l6.5-3.757812-121.507813-210.453125h42.09375c5.800781 0 10.519531 4.71875 10.519531 10.519531v19.039063c0 12.429687 10.113282 22.542969 22.542969 22.542969s22.546875-10.113282 22.546875-22.542969v-19.039063c0-5.800781 4.71875-10.519531 10.519531-10.519531s10.519531 4.71875 10.519531 10.519531v44.085938c0 15.195312 12.363282 27.554687 27.554688 27.554687s27.554688-12.359375 27.554688-27.554687v-44.085938c0-5.800781 4.71875-10.519531 10.519531-10.519531h58.613281v-7.515625c0-62.378906-22.695312-122.476562-63.902344-169.222656zm-289.949218-52.472656c32.253906-12.789063 65.175781-19.273438 97.851562-19.273438 40.449219 0 79.355469 9.890625 113.980469 28.523438l-11.613281 20.109374c-30.539063-16.320312-65.386719-25.589843-102.367188-25.589843s-71.828125 9.269531-102.367188 25.589843l-12.539062-21.71875c5.558594-2.773437 11.242188-5.335937 17.054688-7.640624zm-123.84375 123.84375c18.183593-45.847657 51.449218-84.273438 93.570312-109.039063l12.753906 22.09375c-59.550781 37.3125-99.867187 102.582031-102.410156 177.28125h-23.0625c.917969-30.203125 7.339844-60.554687 19.148438-90.335937zm18.953124 105.367187h114.570313v-15.03125h-114.570313c2.53125-69.144531 39.824219-129.566406 94.890626-164.261719l94.835937 164.261719h-60.128906v15.03125h60.128906l-94.835937 164.261719c-55.066407-34.695313-92.359376-95.113282-94.890626-164.261719zm202.742188 7.515625 94.847656 164.277344c-29.109375 15.445312-61.734375 23.589844-94.847656 23.589844-34.242188 0-66.527344-8.542969-94.847656-23.582032zm0 225.941406c-40.75 0-79.699219-10.148437-113.984375-28.511718l11.617187-20.125c30.539063 16.320312 65.390626 25.589843 102.367188 25.589843 35.746094 0 70.976562-8.828125 102.371094-25.585937l11.570312 20.035156c-34.863281 18.730469-74.09375 28.597656-113.941406 28.597656zm197.386719-248.488281c-14.089844 0-25.550781 11.460937-25.550781 25.550781v44.085938c0 6.90625-5.617188 12.523437-12.523438 12.523437s-12.527344-5.617187-12.527344-12.523437v-44.085938c0-14.089844-11.460937-25.550781-25.546875-25.550781-14.089843 0-25.550781 11.464844-25.550781 25.550781v19.039063c0 4.144531-3.371094 7.511719-7.515625 7.511719s-7.515625-3.367188-7.515625-7.511719v-19.039063c0-14.089844-11.460938-25.550781-25.546875-25.550781h-42.09375l54.613281-94.589844-13.015625-7.511719-54.613281 94.589844-94.847656-164.285156c28.320312-15.042969 60.605468-23.582031 94.847656-23.582031s66.53125 8.527343 94.855469 23.570312l-32.730469 56.6875 13.015625 7.515625 32.714844-56.664062c55.070312 34.695312 92.375 95.117187 94.902343 164.269531zm0 0"/><path d="m363.09375 135.78125c-10.609375 4.097656-18.992188 12.078125-23.601562 22.480469-1.992188 4.503906-3.226563 13.101562 7.921874 23.484375l-14.261718 22.472656 54.425781 24.113281 7.0625-25.664062c15.195313 1.292969 20.722656-5.40625 22.71875-9.910157 4.609375-10.398437 4.890625-21.972656.792969-32.582031-4.09375-10.613281-12.078125-18.992187-22.476563-23.601562-10.398437-4.605469-21.96875-4.886719-32.582031-.792969zm41.039062 29.804688c2.652344 6.867187 2.46875 14.355468-.515624 21.085937-.152344.347656-3.371094 2.214844-12.933594.234375l-6.898438-1.429688-6.070312 22.046876-22.523438-9.980469 12.253906-19.304688-5.695312-4.152343c-7.890625-5.75-8.671875-9.386719-8.515625-9.738282 2.980469-6.726562 8.40625-11.894531 15.269531-14.542968 6.867188-2.652344 14.351563-2.46875 21.082032.511718 6.730468 2.980469 11.898437 8.402344 14.546874 15.269532zm0 0"/><path d="m141.027344 281.164062c-10.484375-4.414062-22.058594-4.484374-32.59375-.195312s-18.765625 12.421875-23.183594 22.90625c-4.417969 10.480469-4.484375 22.054688-.195312 32.589844 4.289062 10.535156 12.421874 18.769531 22.90625 23.1875 4.539062 1.914062 13.160156 2.988281 23.335937-8.351563l22.730469 13.847657 23.109375-54.855469-25.785157-6.59375c1.007813-15.203125-5.785156-20.621094-10.324218-22.535157zm15.488281 39.367188-9.566406 22.707031-19.527344-11.898437-4.046875 5.769531c-5.605469 7.996094-9.230469 8.839844-9.582031 8.691406-6.78125-2.859375-12.046875-8.1875-14.820313-15.003906-2.777344-6.816406-2.730468-14.304687.125-21.085937 2.859375-6.785157 8.1875-12.046876 15.003906-14.824219 3.355469-1.363281 6.875-2.046875 10.394532-2.046875 3.625 0 7.25.726562 10.695312 2.175781.351563.148437 2.277344 3.332031.472656 12.925781l-1.304687 6.925782zm0 0"/><path d="m264.46875 100.945312c-.917969-17.144531-15.148438-30.808593-32.515625-30.808593-17.957031 0-32.5625 14.609375-32.5625 32.5625 0 13.503906 8.335937 25.324219 20.367187 30.1875-.210937 1.601562-.328124 3.226562-.328124 4.882812 0 20.71875 16.855468 37.574219 37.574218 37.574219 20.714844 0 37.570313-16.855469 37.570313-37.574219 0-18.164062-12.953125-33.351562-30.105469-36.824219zm-39.789062 17.699219c-6.089844-2.785156-10.261719-8.9375-10.261719-15.945312 0-9.664063 7.867187-17.53125 17.535156-17.53125 9.082031 0 16.574219 6.945312 17.445313 15.800781-10.5 2.167969-19.410157 8.734375-24.71875 17.675781zm32.324218 41.667969c-12.433594 0-22.546875-10.113281-22.546875-22.542969 0-12.429687 10.113281-22.542969 22.546875-22.542969 12.429688 0 22.542969 10.113282 22.542969 22.542969 0 12.429688-10.113281 22.542969-22.542969 22.542969zm0 0"/><path d="m108.710938 172.335938c-17.953126 0-32.5625 14.609374-32.5625 32.566406 0 17.953125 14.609374 32.5625 32.5625 32.5625 17.957031 0 32.566406-14.609375 32.566406-32.5625 0-17.957032-14.609375-32.566406-32.566406-32.566406zm0 50.097656c-9.667969 0-17.53125-7.863282-17.53125-17.53125 0-9.667969 7.863281-17.535156 17.53125-17.535156 9.667968 0 17.535156 7.867187 17.535156 17.535156 0 9.667968-7.863282 17.53125-17.535156 17.53125zm0 0"/><path d="m286.558594 377.238281c0-17.957031-14.605469-32.566406-32.5625-32.566406-17.953125 0-32.5625 14.609375-32.5625 32.566406 0 17.953125 14.609375 32.5625 32.5625 32.5625 17.957031 0 32.5625-14.605469 32.5625-32.5625zm-32.5625 17.535157c-9.667969 0-17.535156-7.867188-17.535156-17.535157s7.867187-17.535156 17.535156-17.535156c9.667968 0 17.535156 7.867187 17.535156 17.535156s-7.867188 17.535157-17.535156 17.535157zm0 0"/><path d="m182.449219 281.679688 26.050781-5.011719 2.839844 14.757812-26.050782 5.011719zm0 0"/><path d="m128.75 378.738281h15.03125v15.03125h-15.03125zm0 0"/><path d="m174.53125 237.347656c-1.054688 0-2.113281-.058594-3.171875-.179687l1.707031-14.933594c2.703125.3125 5.382813-.257813 7.742188-1.640625 5.957031-3.496094 7.957031-11.183594 4.464844-17.140625-1.8125-3.085937-4.886719-5.25-8.4375-5.941406l-8.363282-1.628907 2.660156-8.09375c1.128907-3.4375.738282-7.179687-1.070312-10.261718-3.496094-5.957032-11.1875-7.960938-17.140625-4.464844l-7.605469-12.964844c13.101563-7.6875 30.019532-3.28125 37.707032 9.820313 2.722656 4.640625 3.992187 9.941406 3.742187 15.234375 4.742187 2.359375 8.75 6.054687 11.46875 10.695312 7.691406 13.101563 3.285156 30.015625-9.820313 37.707032-4.265624 2.503906-9.015624 3.792968-13.882812 3.792968zm0 0"/><path d="m245.980469 317.621094 12.023437-9.015625 9.015625 12.023437-12.023437 9.015625zm0 0"/><path d="m112.6875 141.460938 25.050781-16.03125 8.101563 12.65625-25.050782 16.035156zm0 0"/><path d="m189.300781 421.734375 24.050781-13.023437 7.15625 13.214843-24.046874 13.023438zm0 0"/><path d="m243.78125 435.519531 4.421875-14.367187 26.050781 8.015625-4.417968 14.367187zm0 0"/><path d="m294.925781 429.164062 7.015625-23.042968 14.375 4.375-7.011718 23.046875zm0 0"/><path d="m305.449219 226.476562 7.300781-13.136718 18.035156 10.015625-7.296875 13.140625zm0 0"/><path d="m413.417969 223.542969 18.035156-11.023438 7.835937 12.824219-18.035156 11.023438zm0 0"/><path d="m274.035156 69.136719h15.03125v15.027343h-15.03125zm0 0"/><path d="m305.097656 86.167969h15.027344v15.03125h-15.027344zm0 0"/></svg>